<svg width="75" height="31" viewBox="0 0 75 31" fill="none" xmlns="http://www.w3.org/2000/svg">
<rect x="1.5" y="1.5" width="72" height="28" stroke="#537188" stroke-width="3"/>
<path d="M8.5368 5.80469H11.0021L17.2907 21.4536L23.5661 5.80469H26.0446L18.2399 25H16.3151L8.5368 5.80469ZM7.7326 5.80469H9.9079L10.2639 17.5117V25H7.7326V5.80469ZM24.6603 5.80469H26.8356V25H24.3044V17.5117L24.6603 5.80469ZM33.8493 5.80469V25H31.3049V5.80469H33.8493ZM45.4377 5.80469L37.4616 14.7563L32.9792 19.4102L32.5573 16.6943L35.9323 12.9766L42.3791 5.80469H45.4377ZM42.9855 25L35.8796 15.6396L37.3957 13.6226L46.0178 25H42.9855Z" fill="#537188"/>
<rect x="48.1652" y="22.7334" width="18.578" height="2.75556" fill="#537188"/>
</svg>
