<svg width="484" height="750" viewBox="0 0 484 750" fill="none" xmlns="http://www.w3.org/2000/svg">
<g clip-path="url(#clip0_88_211)">
<path d="M120.01 -12.082C130.87 -8.71325 139.473 3.65925 141.609 19.033C143.317 31.2218 138.314 44.5743 130.626 48.3718C126.356 50.5155 120.437 50.3318 115.679 48.0043C110.859 45.6155 105.184 39.858 102.378 34.468C93.8973 18.1143 94.9955 0.106753 105.001 -8.95824C109.394 -12.9395 114.153 -13.9195 120.01 -12.082Z" fill="#EBE1D4"/>
<path d="M69.0045 16.9513C78.7053 20.0751 88.3452 28.8951 93.4702 39.3688C95.8497 44.2076 96.7039 48.1276 96.7039 54.0688C96.7039 59.0913 96.5208 60.0101 94.6905 63.6851C91.1518 70.9738 87.125 73.1176 77.9732 72.5663C73.3363 72.3213 72.055 71.9538 67.2961 69.6876C62.8422 67.5438 61.0119 66.1351 56.7411 61.7863C51.372 56.3963 48.6265 52.0476 45.6979 44.2688C43.8675 39.4301 43.7455 31.6513 45.3928 26.8126C46.9792 22.2801 51.6771 17.5026 55.6428 16.5226C59.6696 15.4813 64.9777 15.6651 69.0045 16.9513Z" fill="#EBE1D4"/>
<path d="M178.338 17.2577C184.683 19.524 190.418 27.4252 193.103 37.5315C194.262 41.9415 194.445 51.619 193.408 55.9065C191.394 64.114 185.11 72.8727 179.619 74.9552C174.006 77.099 166.501 74.7102 161.682 69.259C156.129 62.9502 153.14 54.3752 153.14 44.8815C153.14 28.6502 161.621 16.339 172.664 16.4615C174.494 16.4615 177.057 16.829 178.338 17.2577Z" fill="#EBE1D4"/>
<path d="M146.123 76.4859C154.543 77.7722 164.61 82.1209 174.677 88.9197C185.903 96.4534 196.275 107.111 197.984 112.746C200.607 121.566 197.129 129.957 189.198 133.938C185.049 136.021 180.046 137.307 171.138 138.593C161.987 139.941 157.167 141.043 152.591 142.881C145.147 145.943 141.67 148.883 132.64 159.725C128.796 164.38 124.586 168.912 123.305 169.77C116.106 174.792 106.893 175.16 101.951 170.566C95.9107 164.931 93.2262 152.497 94.5684 135.837C95.9717 117.707 98.1071 108.458 103.232 97.8622C107.015 90.0222 111.896 84.7547 118.79 81.1409C126.417 77.0984 137.765 75.1997 146.123 76.4859Z" fill="#EBE1D4"/>
<path d="M59.0595 79.12C65.5268 80.7125 71.3229 84.1425 76.936 89.8387C83.8914 96.8825 86.6979 102.334 87.125 109.5C87.4911 115.931 86.5149 119.177 83.2202 122.914C81.2068 125.18 79.7426 126.099 77.058 127.017C63.2083 131.55 45.4539 122.301 37.6443 106.499C35.2039 101.537 35.0818 101.109 35.0818 95.4737C35.0818 90.0837 35.2649 89.2875 36.9122 86.2862C37.9494 84.4487 39.7187 82.3662 40.939 81.5087C45.5149 78.5075 52.5312 77.5887 59.0595 79.12Z" fill="#EBE1D4"/>
<path d="M83.5863 250.619C88.7723 251.722 91.4568 253.314 95.7887 257.724C100.182 262.134 103.964 268.994 105.917 276.099C107.503 281.734 107.503 292.943 105.917 297.537C103.659 304.335 99.5714 309.848 95.4836 311.685C91.5178 313.523 85.9047 313.217 81.2678 311.012C65.7708 303.662 57.2902 277.875 64.9777 261.583C69.1875 252.518 75.4107 248.904 83.5863 250.619Z" fill="#EBE1D4"/>
<path d="M31.1161 279.163C44.3556 281.552 58.0223 295.333 61.378 309.605C62.6592 315.117 62.2931 321.916 60.4018 326.203C58.3884 330.858 54.0565 334.595 49.6027 335.513C35.1428 338.576 18.0595 326.265 11.2872 307.89C8.17558 299.621 9.15177 290.433 13.7277 284.431C16.9003 280.266 24.5268 277.938 31.1161 279.163Z" fill="#EBE1D4"/>
<path d="M142.158 279.714C153.994 283.573 162.048 301.703 158.997 317.444C157.228 326.326 151.981 334.533 146.063 337.412C143.744 338.514 142.585 338.698 139.229 338.453C134.348 338.086 131.176 336.616 127.759 332.941C121.963 326.938 118.973 319.404 118.546 309.788C118.058 300.172 120.499 291.903 125.807 285.166C129.04 281.062 137.582 278.183 142.158 279.714Z" fill="#EBE1D4"/>
<path d="M330.074 310.583C337.518 312.727 343.436 317.933 347.585 326.08C354.723 339.922 354.784 354.867 347.707 365.463C344.107 370.915 340.995 372.568 334.65 372.568C330.501 372.568 329.281 372.262 326.414 370.792C311.344 362.891 303.107 337.533 310.49 321.67C314.76 312.543 322.204 308.317 330.074 310.583Z" fill="#EBE1D4"/>
<path d="M278.641 339.432C291.088 342.617 303.473 355.541 306.89 368.893C308.354 374.651 308.415 378.693 307.134 383.226C305.914 387.574 303.595 391.004 300.24 393.393C297.921 395.047 297.067 395.231 292.186 395.414C287.976 395.598 285.841 395.353 282.607 394.373C271.991 391.127 262.29 381.327 257.348 368.893C255.701 364.728 255.396 363.197 255.396 358.481C255.335 351.743 256.555 347.762 259.911 343.903C261.253 342.372 263.51 340.718 264.914 340.106C268.33 338.758 274.737 338.391 278.641 339.432Z" fill="#EBE1D4"/>
<path d="M389.012 339.984C398.225 343.475 405.241 356.521 405.241 370.119C405.241 379.735 402.252 387.82 396.516 393.639C392.734 397.497 389.256 398.906 384.375 398.416C379.86 398.049 376.382 396.089 372.539 391.801C367.109 385.737 364.241 377.407 364.241 367.669C364.241 358.175 367.048 350.09 372.295 344.394C376.321 339.922 383.765 338.024 389.012 339.984Z" fill="#EBE1D4"/>
<path d="M114.702 340.045C126.844 342.618 143.256 352.54 154.665 364.116C161.743 371.283 163.634 374.529 164 380.103C164.488 387.269 161.865 392.598 156.19 396.028C151.554 398.784 146.856 400.131 136.301 401.663C116.228 404.48 110.676 407.543 97.9851 422.733C90.6027 431.553 88.8333 433.145 84.8065 434.983C73.4583 440.128 64.6116 435.228 60.9509 421.753C59.6086 416.73 59.3035 406.624 60.1577 396.456C61.561 379.796 63.6964 370.854 68.6384 360.686C73.3973 350.886 81.4509 344.088 92.0059 340.903C97.314 339.31 109.089 338.881 114.702 340.045Z" fill="#EBE1D4"/>
<path d="M25.3199 342.311C34.1056 345.251 41.244 350.335 46.4911 357.44C56.558 371.099 54.2396 386.718 41.5491 390.27C31.2381 393.149 20.0729 389.413 10.6161 379.919C6.7113 375.999 5.12499 373.794 2.98957 369.506C0.366061 364.239 0.305049 363.933 0.366061 358.543C0.427074 350.029 3.23362 345.251 9.51785 342.863C13.1786 341.515 21.9033 341.209 25.3199 342.311Z" fill="#EBE1D4"/>
<path d="M362.411 400.437C368.39 401.969 381.385 408.584 388.646 413.79C395.662 418.812 405.424 428.551 407.804 432.839C412.196 440.985 409.512 451.336 401.763 456.175C398.103 458.441 392.795 459.85 381.324 461.687C360.824 464.934 356.31 467.445 343.863 482.451C334.162 494.089 330.196 496.722 322.265 496.661C309.574 496.539 303.717 483.064 305.67 458.38C308.415 422.916 318.116 406.011 338.799 400.621C345.815 398.784 355.638 398.722 362.411 400.437Z" fill="#EBE1D4"/>
<path d="M268.269 401.723C278.153 403.438 287.793 410.298 294.077 420.098C297.006 424.631 298.348 429.102 298.348 434.247C298.348 444.415 292.918 450.05 282.18 451.03C271.259 452.071 257.592 444.108 250.515 432.655C244.17 422.426 244.353 411.83 250.881 405.521C254.42 402.091 261.619 400.498 268.269 401.723Z" fill="#EBE1D4"/>
<path d="M269.734 585.351C276.567 588.046 281.57 593.191 285.597 601.643C292.613 616.404 291.637 632.146 283.095 641.946C281.753 643.477 279.496 645.131 278.092 645.743C262.778 651.929 245.39 632.819 245.146 609.606C245.085 601.092 246.854 595.457 251.43 589.699C255.518 584.616 263.205 582.778 269.734 585.351Z" fill="#EBE1D4"/>
<path d="M324.766 613.649C328.488 614.506 330.379 615.792 333.613 619.467C339.348 625.899 342.46 634.412 342.46 643.906C342.521 653.216 339.836 660.934 334.589 666.814C330.746 671.101 327.817 672.51 323.058 672.51C305.853 672.387 295.298 644.396 305.121 624.98C306.158 622.897 307.805 620.202 308.842 618.977C312.076 614.874 319.519 612.362 324.766 613.649Z" fill="#EBE1D4"/>
<path d="M218.362 614.2C225.988 617.018 233.371 623.081 238.557 630.738C250.271 648.071 245.756 668.651 230.076 669.815C216.104 670.856 201.034 659.403 194.567 642.865C190.052 631.289 193.103 618.855 201.583 614.323C204.634 612.73 214.213 612.669 218.362 614.2Z" fill="#EBE1D4"/>
<path d="M295.42 673.612C303.778 675.144 313.174 679.37 323.668 686.352C330.868 691.13 343.253 703.074 345.327 707.3C347.036 710.73 347.646 717.161 346.548 720.53C343.619 729.534 337.274 732.902 318.421 735.72C298.836 738.66 293.65 741.477 281.143 756.422C273.638 765.365 272.113 766.835 267.903 768.917C263.571 771.061 256.616 771.367 253.26 769.53C243.499 764.262 240.387 747.541 244.109 720.775C246.427 703.747 251.125 692.294 258.996 684.27C263.632 679.554 269.368 676.246 276.079 674.531C280.411 673.367 291.393 672.816 295.42 673.612Z" fill="#EBE1D4"/>
<path d="M208.478 676.368C217.385 678.818 226.11 685.678 231.784 694.743C237.397 703.625 236.848 715.385 230.564 721.081C224.28 726.716 211.223 726.287 200.851 720.04C193.53 715.568 186.147 706.258 184.012 698.786C181.083 688.618 184.988 679.186 193.347 676.491C197.251 675.205 204.024 675.205 208.478 676.368Z" fill="#EBE1D4"/>
</g>
<defs>
<clipPath id="clip0_88_211">
<rect width="484" height="750" fill="white" transform="matrix(-1 0 0 1 484 0)"/>
</clipPath>
</defs>
</svg>
