<svg width="66" height="97" viewBox="0 0 66 97" fill="none" xmlns="http://www.w3.org/2000/svg">
<path d="M37.4841 34.2354C32.8296 29.8035 29.1433 24.0857 26.723 17.5899C24.8612 12.5827 22.1802 3.34647 22.1802 1.89167C22.1802 -0.375088 17.7119 -1.28853 17.7119 3.10968C17.7119 5.37645 16.0736 18.5372 11.084 26.4202C6.35506 33.9309 4.53051 35.8597 1.21653 37.1453C-0.682496 37.8558 -0.384646 38.3968 2.29633 39.2426C8.92429 41.3402 11.9032 46.3812 17.8981 65.598C21.3983 76.7627 23.5579 76.4244 25.3825 64.4139C27.1698 52.4711 33.7978 38.9043 38.5267 37.4156C40.0906 36.942 39.9789 36.6375 37.4841 34.2354ZM21.8451 55.8205L21.1376 58.8654C20.8397 58.1549 16.9672 43.2348 10.1531 39.2426C8.29132 38.1599 7.9562 37.7201 9.03604 37.7201C12.499 37.7201 17.8981 29.3636 19.5365 21.3115C20.3184 17.6237 20.4301 17.4884 21.3983 19.789C23.409 24.6947 26.723 29.3297 31.2657 33.6264L34.2446 36.4687C33.835 36.9085 25.457 39.8854 21.8451 55.8205Z" fill="#EFE6D9"/>
<path d="M64.3311 74.09C58.4851 69.7595 54.203 62.0799 54.203 55.7532C54.203 52.9789 50.1443 49.7984 48.6176 57.6813C46.7558 67.4589 45.5271 70.1316 41.3194 73.9547C37.8565 77.0673 37.8193 76.8643 42.1758 77.9469C46.2345 78.9619 49.2506 83.8341 51.2241 92.5967C52.4529 98.0437 56.884 98.2802 57.0701 92.7317C57.3308 84.9164 59.3043 80.552 63.7726 77.9808C66.6025 76.323 66.677 75.8155 64.3311 74.09ZM59.8628 75.8835C58.5596 76.2895 55.0222 79.0972 54.203 80.3152C53.0859 82.0407 53.1232 82.0407 51.8199 80.146C50.7028 78.5221 48.0591 76.729 46.309 76.4245C44.9685 76.1538 45.0058 76.0865 47.1654 74.158C48.208 73.2446 49.6602 71.3834 50.4049 70.0301C52.0806 67.0867 51.8571 67.1209 53.4583 69.4553C54.6871 71.2146 56.6978 73.1427 59.2298 74.9697C59.9373 75.4095 60.1607 75.782 59.8628 75.8835Z" fill="#EFE6D9"/>
</svg>
