<svg width="512" height="672" viewBox="0 0 512 672" fill="none" xmlns="http://www.w3.org/2000/svg">
<g clip-path="url(#clip0_88_62)">
<path fill-rule="evenodd" clip-rule="evenodd" d="M460.843 0.102259C382.095 -3.41534 326.537 84.5415 286.115 152.182C254.253 205.498 301.965 285.68 261.843 333.099C194.787 412.352 7.02667 386.572 0.1651 490.14C-5.95337 582.492 159.477 573.078 243.345 612.309C291.548 634.857 335.072 666.944 388.088 671.6C435.434 675.758 476.832 646.384 523.406 636.905C575.761 626.248 636.206 645.066 678.537 612.48C722.344 578.758 738.304 519.642 746.699 465.016C755.148 410.044 747.053 354.376 726.125 302.843C704.546 249.709 663.615 210.495 625.814 167.357C573.14 107.245 540.709 3.66983 460.843 0.102259Z" fill="white"/>
</g>
<defs>
<clipPath id="clip0_88_62">
<rect width="512" height="672" fill="white"/>
</clipPath>
</defs>
</svg>
