<svg width="72" height="22" viewBox="0 0 72 22" fill="none" xmlns="http://www.w3.org/2000/svg">
<path d="M9.66026 0.208926C10.2622 0.336886 10.5737 0.521717 11.0765 1.03356C11.5864 1.54539 12.0254 2.34159 12.252 3.16622C12.4361 3.82023 12.4361 5.12116 12.252 5.65432C11.99 6.44341 11.5155 7.08321 11.0411 7.29647C10.5808 7.50974 9.92935 7.4742 9.39117 7.21828C7.59254 6.36521 6.60825 3.37238 7.50048 1.48141C7.98909 0.429301 8.71138 0.00987782 9.66026 0.208926Z" fill="#C5BBAE"/>
<path d="M3.5704 3.52184C5.10703 3.79908 6.69323 5.39858 7.0827 7.05495C7.23141 7.69475 7.18892 8.48383 6.9694 8.98145C6.73572 9.52173 6.23295 9.95537 5.71602 10.062C4.03777 10.4174 2.05502 8.98856 1.269 6.8559C0.907859 5.8962 1.02116 4.82987 1.55225 4.1332C1.92048 3.6498 2.80563 3.37966 3.5704 3.52184Z" fill="#C5BBAE"/>
<path d="M16.4583 3.58582C17.832 4.03368 18.7667 6.13791 18.4127 7.96489C18.2073 8.99567 17.5983 9.94826 16.9115 10.2824C16.6424 10.4103 16.5078 10.4317 16.1184 10.4032C15.5519 10.3606 15.1836 10.19 14.7871 9.76343C14.1144 9.06676 13.7674 8.19237 13.7178 7.07628C13.6612 5.96018 13.9444 5.00049 14.5605 4.21851C14.9358 3.74221 15.9272 3.4081 16.4583 3.58582Z" fill="#C5BBAE"/>
<path d="M13.2717 10.588C14.6809 10.8866 16.5857 12.0382 17.9099 13.3818C18.7313 14.2135 18.9509 14.5903 18.9933 15.2372C19.05 16.0689 18.7455 16.6874 18.0869 17.0855C17.5488 17.4054 17.0035 17.5618 15.7785 17.7395C13.4487 18.0665 12.8043 18.422 11.3314 20.185C10.4746 21.2086 10.2693 21.3935 9.80189 21.6067C8.48478 22.2039 7.458 21.6352 7.03313 20.0712C6.87734 19.4883 6.84193 18.3153 6.94107 17.1353C7.10394 15.2016 7.35178 14.1637 7.92536 12.9837C8.4777 11.8463 9.41242 11.0572 10.6375 10.6875C11.2535 10.5027 12.6202 10.4529 13.2717 10.588Z" fill="#C5BBAE"/>
<path d="M2.89768 10.851C3.91738 11.1922 4.74588 11.7823 5.35487 12.6069C6.52327 14.1922 6.25419 16.0049 4.78129 16.4173C3.58456 16.7514 2.28869 16.3177 1.1911 15.2159C0.7379 14.7609 0.553788 14.505 0.305944 14.0074C0.00145119 13.396 -0.00563005 13.3604 0.00145119 12.7349C0.00853242 11.7467 0.334269 11.1922 1.06364 10.915C1.48851 10.7586 2.50113 10.7231 2.89768 10.851Z" fill="#C5BBAE"/>
<path d="M35.152 4.64C35.3973 4.64 35.52 4.72533 35.52 4.896V4.96C35.52 5.07733 35.4027 5.23733 35.168 5.44C34.9333 5.64267 34.7573 5.888 34.64 6.176L30.8 15.328C30.608 15.776 30.288 16 29.84 16C29.456 16 29.168 15.792 28.976 15.376L24.736 6.192C24.6187 5.92533 24.4427 5.68533 24.208 5.472C23.984 5.25867 23.872 5.088 23.872 4.96V4.896C23.872 4.72533 24 4.64 24.256 4.64H27.84C28.0853 4.64 28.208 4.72533 28.208 4.896V4.96C28.208 5.04533 28.16 5.136 28.064 5.232C27.968 5.31733 27.872 5.39733 27.776 5.472C27.68 5.54667 27.6 5.648 27.536 5.776C27.4827 5.904 27.488 6.04267 27.552 6.192L30.512 13.328L33.312 6.176C33.3867 5.984 33.3653 5.81867 33.248 5.68C33.1307 5.53067 32.992 5.39733 32.832 5.28C32.6827 5.16267 32.608 5.056 32.608 4.96V4.896C32.608 4.72533 32.7307 4.64 32.976 4.64H35.152ZM41.1639 13.568C41.2599 13.44 41.3772 13.3973 41.5159 13.44C41.6545 13.4827 41.7185 13.584 41.7079 13.744C41.6545 14.2987 41.3345 14.8427 40.7479 15.376C40.1612 15.8987 39.3985 16.16 38.4599 16.16C37.3292 16.16 36.4012 15.7867 35.6759 15.04C34.9505 14.2933 34.5879 13.312 34.5879 12.096C34.5879 10.9547 34.9665 10.016 35.7239 9.28C36.4812 8.53333 37.3932 8.16 38.4599 8.16C39.4305 8.16 40.1772 8.38933 40.6999 8.848C41.2225 9.30667 41.4839 9.83467 41.4839 10.432C41.4839 10.9227 41.2492 11.2747 40.7799 11.488L37.2279 13.104C37.6652 14.032 38.3692 14.496 39.3399 14.496C39.7452 14.496 40.1079 14.4107 40.4279 14.24C40.7585 14.0587 41.0039 13.8347 41.1639 13.568ZM38.1719 8.864C37.7559 8.864 37.4252 9.06667 37.1799 9.472C36.9345 9.86667 36.8119 10.3733 36.8119 10.992C36.8119 11.5147 36.8652 11.9733 36.9719 12.368L39.0359 11.328C39.3132 11.1893 39.4519 10.9387 39.4519 10.576C39.4519 10.2133 39.3345 9.84 39.0999 9.456C38.8652 9.06133 38.5559 8.864 38.1719 8.864ZM45.6633 16.16C44.9166 16.16 44.3246 15.9253 43.8873 15.456C43.4606 14.976 43.2473 14.288 43.2473 13.392V9.248H42.4953C42.2819 9.248 42.1753 9.14133 42.1753 8.928V8.656C42.1753 8.432 42.2819 8.32 42.4953 8.32H42.8953C43.3326 8.32 43.7006 8.176 43.9993 7.888C44.3086 7.6 44.5059 7.216 44.5913 6.736C44.6446 6.48 44.7673 6.352 44.9593 6.352H45.2793C45.5139 6.352 45.6313 6.48 45.6313 6.736L45.6473 8.32H47.4873C47.5726 8.32 47.6473 8.352 47.7113 8.416C47.7753 8.48 47.8073 8.56 47.8073 8.656V8.928C47.8073 9.024 47.7753 9.104 47.7113 9.168C47.6473 9.22133 47.5726 9.248 47.4873 9.248H45.6473V13.424C45.6473 13.7333 45.7219 13.984 45.8713 14.176C46.0313 14.3573 46.2286 14.448 46.4633 14.448C47.0179 14.448 47.3806 14.208 47.5513 13.728C47.6473 13.5893 47.7646 13.536 47.9033 13.568C48.0526 13.5893 48.1273 13.6747 48.1273 13.824C48.1273 14.4427 47.9033 14.9867 47.4553 15.456C47.0179 15.9253 46.4206 16.16 45.6633 16.16ZM49.2294 16C48.984 16 48.8614 15.9093 48.8614 15.728V15.664C48.8614 15.568 48.9627 15.408 49.1654 15.184C49.3787 14.9493 49.4854 14.7093 49.4854 14.464V6.176C49.4854 5.94133 49.3787 5.70667 49.1654 5.472C48.9627 5.23733 48.8614 5.06667 48.8614 4.96V4.896C48.8614 4.72533 48.984 4.64 49.2294 4.64H52.8774C54.4027 4.64 55.6294 4.94933 56.5574 5.568C57.496 6.176 57.9654 7.11467 57.9654 8.384C57.9654 9.58933 57.5494 10.544 56.7174 11.248C55.8854 11.952 54.76 12.304 53.3414 12.304H51.9174V14.464C51.9174 14.7093 52.0294 14.9493 52.2534 15.184C52.488 15.408 52.6054 15.568 52.6054 15.664V15.728C52.6054 15.9093 52.4827 16 52.2374 16H49.2294ZM52.6054 11.36H53.3414C54.0027 11.36 54.52 11.136 54.8934 10.688C55.2667 10.2293 55.4534 9.65333 55.4534 8.96C55.4534 7.92533 55.192 7.10933 54.6694 6.512C54.1574 5.904 53.56 5.6 52.8774 5.6H52.4454C52.0934 5.6 51.9174 5.82933 51.9174 6.288V10.64C51.9174 11.12 52.1467 11.36 52.6054 11.36ZM64.8514 13.568C64.9474 13.44 65.0647 13.3973 65.2034 13.44C65.342 13.4827 65.406 13.584 65.3954 13.744C65.342 14.2987 65.022 14.8427 64.4354 15.376C63.8487 15.8987 63.086 16.16 62.1474 16.16C61.0167 16.16 60.0887 15.7867 59.3634 15.04C58.638 14.2933 58.2754 13.312 58.2754 12.096C58.2754 10.9547 58.654 10.016 59.4114 9.28C60.1687 8.53333 61.0807 8.16 62.1474 8.16C63.118 8.16 63.8647 8.38933 64.3874 8.848C64.91 9.30667 65.1714 9.83467 65.1714 10.432C65.1714 10.9227 64.9367 11.2747 64.4674 11.488L60.9154 13.104C61.3527 14.032 62.0567 14.496 63.0274 14.496C63.4327 14.496 63.7954 14.4107 64.1154 14.24C64.446 14.0587 64.6914 13.8347 64.8514 13.568ZM61.8594 8.864C61.4434 8.864 61.1127 9.06667 60.8674 9.472C60.622 9.86667 60.4994 10.3733 60.4994 10.992C60.4994 11.5147 60.5527 11.9733 60.6594 12.368L62.7234 11.328C63.0007 11.1893 63.1394 10.9387 63.1394 10.576C63.1394 10.2133 63.022 9.84 62.7874 9.456C62.5527 9.06133 62.2434 8.864 61.8594 8.864ZM69.3508 16.16C68.6041 16.16 68.0121 15.9253 67.5748 15.456C67.1481 14.976 66.9348 14.288 66.9348 13.392V9.248H66.1828C65.9694 9.248 65.8628 9.14133 65.8628 8.928V8.656C65.8628 8.432 65.9694 8.32 66.1828 8.32H66.5828C67.0201 8.32 67.3881 8.176 67.6868 7.888C67.9961 7.6 68.1934 7.216 68.2788 6.736C68.3321 6.48 68.4548 6.352 68.6468 6.352H68.9668C69.2014 6.352 69.3188 6.48 69.3188 6.736L69.3348 8.32H71.1748C71.2601 8.32 71.3348 8.352 71.3988 8.416C71.4628 8.48 71.4948 8.56 71.4948 8.656V8.928C71.4948 9.024 71.4628 9.104 71.3988 9.168C71.3348 9.22133 71.2601 9.248 71.1748 9.248H69.3348V13.424C69.3348 13.7333 69.4094 13.984 69.5588 14.176C69.7188 14.3573 69.9161 14.448 70.1508 14.448C70.7054 14.448 71.0681 14.208 71.2388 13.728C71.3348 13.5893 71.4521 13.536 71.5908 13.568C71.7401 13.5893 71.8148 13.6747 71.8148 13.824C71.8148 14.4427 71.5908 14.9867 71.1428 15.456C70.7054 15.9253 70.1081 16.16 69.3508 16.16Z" fill="#537188"/>
</svg>
